<?xml version="1.0" encoding="UTF-8"?>
<svg id="Layer_1" data-name="Layer 1" xmlns="http://www.w3.org/2000/svg" width="612" height="229.778" viewBox="0 0 612 229.778">
  <g>
    <g>
      <path d="M35.557,59.981c-1.691,0-5.399,5.277-8.391,2.421-1.035-.986,4.277-3.006,4.063-4.745-.176-1.428-6.686-3.576-4.411-4.938,2.275-1.36,5.688,1.978,8.264,2.037,5.604,.129,9.909-2.007,9.97-2.037,1.273-.645,2.811-.122,3.444,1.167,.635,1.287,.12,2.854-1.148,3.496-.308,.155-5.234,2.6-11.791,2.6Z" style="fill: #de3045;"/>
      <path d="M55.691,61.769c12.449,0,24.894-4.214,24.894-4.214,7.748,0,20.744,2.191,20.744,16.853v14.31c1.489-.081,2.978-.161,4.467-.251,6.815-.412,13.624-.926,20.423-1.554v-12.505c0-25.202-20.744-42.131-45.641-42.131s-41.492,5.66-41.484,12.639c0,6.979,4.15,16.853,16.598,16.853Z" style="fill: #78b354;"/>
    </g>
    <g>
      <path d="M88.708,115.651c11.41,19.017,0,40.666-11.41,36.863-11.41-3.803-15.214,7.607-3.803,11.41s36-1.769,49.445-15.214c3.803-3.803,7.607-3.803,7.607-3.803l-41.838-29.256Z" style="fill: #563889;"/>
      <path d="M149.563,115.651c-11.41,19.017,0,40.666,11.41,36.863,11.41-3.803,15.214,7.607,3.803,11.41s-36-1.769-49.445-15.214c-3.803-3.803-7.607-3.803-7.607-3.803l41.838-29.256Z" style="fill: #563889;"/>
      <path d="M165.492,130.865c-11.41,19.017,0,40.666,11.41,36.863s15.214,7.607,3.803,11.41c-11.41,3.803-36-1.769-49.445-15.214-3.803-3.803-7.607-3.803-7.607-3.803,0,0,41.838-29.256,41.838-29.256Zm-92.713,0c11.41,19.017,0,40.666-11.41,36.863s-15.214,7.607-3.803,11.41c11.41,3.803,36-1.769,49.445-15.214,3.803-3.803,7.607-3.803,7.607-3.803l-41.838-29.256Z" style="fill: #7451a1;"/>
      <path d="M176.902,189.343c-10.38,3.461-24.437-21.398-18.302-40.233,6.26-12.335,13.355-46.327,13.355-57.51,0-27.309-25.511-41.838-52.819-41.838s-52.819,14.529-52.819,41.838c0,11.182,7.094,45.175,13.355,57.51,6.135,18.835-7.923,43.694-18.302,40.233-11.41-3.803-15.214,11.41-3.803,15.214s31.607-2.385,45.641-15.214c8.326-7.607,15.933-7.607,15.933-7.607,0,0,7.607,0,15.929,7.607,14.035,12.829,34.231,19.017,45.641,15.214,11.41-3.803,7.603-19.017-3.807-15.214Z" style="fill: #8868ad;"/>
      <circle cx="103.922" cy="122.886" r="7.607" style="fill: #2a2f33;"/>
      <circle cx="134.35" cy="122.886" r="7.607" style="fill: #2a2f33;"/>
    </g>
    <path d="M145.378,120.865c2.952-3.741,5.904-7.484,8.851-11.229-.623-.373-1.185-.842-1.678-1.335-2.006-2.006-2.91-5.89,3.047-11.847,35.748-35.748,48.372-7.299,53.307-12.234s-38.142-38.142-73.89-2.394c-14.894,14.894-11.008,33.68-.342,44.346,1.201,1.201,2.511,2.31,3.909,3.315,2.262-2.876,4.528-5.75,6.795-8.622Z" style="fill: #78b354;"/>
    <path d="M158.6,149.11c-1.981,6.082-1.855,12.791-.428,18.973,20.065-12.095,31.702-33.655,28.144-58.04-1.355-9.287-7.167-14.279-14.405-16.751-.609,12.585-7.339,44.053-13.31,55.818Z" style="fill: #78b354;"/>
    <path d="M80.303,167.155c1.23-5.921,1.251-12.267-.632-18.046-4.841-9.537-10.179-32.022-12.352-46.9-5.273,2.091-9.466,5.184-11.686,9.582-8.818,17.469,2.429,41.468,24.669,55.363Z" style="fill: #78b354;"/>
    <path d="M158.6,149.11c-1.981,6.081-1.855,12.79-.429,18.971,15.741-9.49,26.295-24.806,28.392-42.742l-20.391,.748c-2.3,9.271-5.006,17.967-7.573,23.023Z" style="fill: #78b354; opacity: .63;"/>
    <path d="M165.798,126.101c-4.22,23.977-27.076,28.894-43.874,29.936-19.677,1.22-43.196-8.375-48.171-24.246-.41-1.308-.947-2.713-1.272-4.013l-19.399,2.505c3.922,24.156,32.924,49.978,70.942,47.951,33.726-1.798,59.153-23.933,62.539-52.894l-20.765,.761Z" style="fill: #78b354;"/>
    <path d="M80.414,151.846c10.992,10.338,25.614,16.444,41.11,16.388,13.079-.047,13.338-15.303,23.497-22.997,.197-2.364,18.564-11.148,19.297-13.398,6.26-12.335,7.637-7.799,7.637-40.239,0-27.309-25.511-41.838-52.819-41.838s-52.819,14.529-52.819,41.838c0,25.041,1.954,29.504,8.214,41.839,.293,.9,5.68,17.484,5.883,18.407Z" style="fill: #8868ad;"/>
    <path d="M167.868,126.84c-4.22,23.977-29.145,28.154-45.944,29.196-19.677,1.22-43.196-8.375-48.171-24.246-.41-1.308-2.297-2.301-2.622-3.6l-18.049,2.092c3.922,24.156,32.924,49.978,70.942,47.951,33.726-1.798,59.153-23.933,62.539-52.894l-18.695,1.501Z" style="fill: #78b354;"/>
    <circle cx="104.722" cy="125.085" r="10.153" style="fill: #2a2f33;"/>
    <circle cx="136.199" cy="125.935" r="7.607" style="fill: #2a2f33;"/>
    <path d="M61.933,43.552c1.235,0,2.396,.182,3.412,.501,.011-.12,.018-.242,.018-.366,0-2.101-1.703-3.803-3.803-3.803s-3.803,1.703-3.803,3.803c0,.213,.022,.42,.055,.623,1.168-.477,2.587-.759,4.121-.759Z" style="fill: #2a2f33;"/>
  </g>
  <g>
    <path d="M294.183,171.083v-11.234h-.488c-4.559,7.977-12.21,13.35-20.351,13.35-4.884,0-9.28-1.465-12.536-4.559v33.375h-27.026V80.725h27.026v48.842c0,13.513,6.675,19.211,15.955,19.211,10.583,0,16.118-9.117,16.118-22.793v-45.26h27.026v90.358h-25.724Z" style="fill: #78b354;"/>
    <path d="M405.869,160.5c-4.07,8.629-14.164,13.513-25.235,13.513-26.375,0-45.423-20.351-45.423-47.54,0-27.677,19.374-48.679,45.423-48.679,11.722,0,20.676,4.396,25.073,11.396h.326v-8.466h27.026v80.753c0,12.21-1.628,21.49-4.884,27.677-6.512,12.536-24.258,22.142-46.889,22.142-25.561,0-42.167-14.49-44.446-31.747h31.259c3.093,6.675,9.117,8.954,15.792,8.954,13.676,0,21.979-8.954,21.979-25.398v-2.605Zm.163-34.19c0-13.187-8.954-23.281-22.142-23.281-12.048,0-21.653,10.094-21.653,22.467,0,12.699,8.628,23.282,21.653,23.282,13.188,0,22.142-9.443,22.142-22.468Z" style="fill: #8868ad;"/>
    <path d="M453.897,71.119v-20.514h27.026v20.514h-27.026Zm0,99.964V80.725h27.026v90.358h-27.026Z" style="fill: #8868ad;"/>
    <path d="M506.645,171.083V101.239h-13.35v-20.514h13.35v-30.119h27.026v30.119h13.025v20.514h-13.025v69.844h-27.026Z" style="fill: #8868ad;"/>
  </g>
</svg>