<?xml version="1.0" encoding="UTF-8"?>
<svg id="Layer_1" data-name="Layer 1" xmlns="http://www.w3.org/2000/svg" width="612" height="612" viewBox="0 0 612 612">
  <g>
    <g>
      <path d="M135.185,97.806c-3.512,0-11.211,10.957-17.425,5.027-2.149-2.047,8.881-6.243,8.437-9.853-.366-2.965-13.884-7.425-9.16-10.254,4.724-2.824,11.812,4.108,17.162,4.231,11.636,.269,20.576-4.167,20.703-4.231,2.643-1.339,5.838-.254,7.152,2.423,1.319,2.672,.249,5.926-2.384,7.259-.64,.322-10.869,5.398-24.484,5.398Z" style="fill: #de3045;"/>
      <path d="M176.994,101.519c25.851,0,51.693-8.751,51.693-8.751,16.089,0,43.076,4.549,43.076,34.997v29.716c3.092-.169,6.185-.334,9.276-.521,14.152-.856,28.292-1.922,42.41-3.226v-25.969c0-52.333-43.076-87.488-94.778-87.488s-86.161,11.752-86.145,26.245c0,14.493,8.617,34.997,34.467,34.997Z" style="fill: #78b354;"/>
    </g>
    <g>
      <path d="M245.558,213.409c23.694,39.491,0,84.447-23.694,76.549-23.694-7.898-31.593,15.796-7.898,23.694,23.694,7.898,74.756-3.673,102.676-31.593,7.898-7.898,15.796-7.898,15.796-7.898l-86.879-60.752Z" style="fill: #563889;"/>
      <path d="M371.928,213.409c-23.694,39.491,0,84.447,23.694,76.549,23.694-7.898,31.593,15.796,7.898,23.694-23.694,7.898-74.756-3.673-102.676-31.593-7.898-7.898-15.796-7.898-15.796-7.898l86.879-60.752Z" style="fill: #563889;"/>
      <path d="M405.005,245.002c-23.694,39.491,0,84.447,23.694,76.549,23.694-7.898,31.593,15.796,7.898,23.694-23.694,7.898-74.756-3.673-102.676-31.593-7.898-7.898-15.796-7.898-15.796-7.898,0,0,86.879-60.752,86.879-60.752Zm-192.525,0c23.694,39.491,0,84.447-23.694,76.549-23.694-7.898-31.593,15.796-7.898,23.694,23.694,7.898,74.756-3.673,102.676-31.593,7.898-7.898,15.796-7.898,15.796-7.898l-86.879-60.752Z" style="fill: #7451a1;"/>
      <path d="M428.7,366.436c-21.554,7.187-50.745-44.435-38.006-83.546,13-25.614,27.732-96.202,27.732-119.423,0-56.709-52.975-86.879-109.683-86.879s-109.683,30.171-109.683,86.879c0,23.22,14.732,93.809,27.732,119.423,12.74,39.112-16.452,90.734-38.006,83.546-23.694-7.898-31.593,23.694-7.898,31.593,23.694,7.898,65.633-4.952,94.778-31.593,17.289-15.796,33.085-15.796,33.085-15.796,0,0,15.796,0,33.077,15.796,29.144,26.64,71.083,39.491,94.778,31.593,23.694-7.898,15.788-39.491-7.906-31.593Z" style="fill: #8868ad;"/>
      <circle cx="277.15" cy="228.433" r="15.796" style="fill: #2a2f33;"/>
      <circle cx="340.335" cy="228.433" r="15.796" style="fill: #2a2f33;"/>
    </g>
    <path d="M363.237,224.236c6.131-7.769,12.259-15.541,18.38-23.318-1.293-.775-2.461-1.749-3.485-2.772-4.166-4.166-6.043-12.231,6.328-24.601,74.233-74.233,100.449-15.157,110.697-25.405,10.248-10.248-79.204-79.204-153.437-4.97-30.929,30.929-22.859,69.939-.709,92.088,2.494,2.494,5.214,4.798,8.117,6.883,4.698-5.972,9.402-11.939,14.109-17.904Z" style="fill: #78b354;"/>
    <path d="M390.694,282.889c-4.114,12.63-3.851,26.562-.889,39.399,41.667-25.116,65.832-69.887,58.442-120.525-2.815-19.286-14.884-29.652-29.914-34.785-1.264,26.133-15.239,91.48-27.639,115.911Z" style="fill: #78b354;"/>
    <path d="M228.103,320.362c2.554-12.296,2.597-25.472-1.311-37.473-10.052-19.805-21.138-66.496-25.649-97.39-10.951,4.343-19.657,10.766-24.267,19.898-18.311,36.276,5.045,86.112,51.228,114.965Z" style="fill: #78b354;"/>
    <path d="M390.694,282.889c-4.113,12.628-3.851,26.559-.89,39.396,32.687-19.707,54.603-51.511,58.958-88.757l-42.342,1.552c-4.777,19.253-10.396,37.31-15.725,47.809Z" style="fill: #78b354; opacity: .63;"/>
    <path d="M405.641,235.109c-8.764,49.79-56.225,60-91.108,62.164-40.862,2.534-89.7-17.391-100.031-50.348-.852-2.717-1.967-5.634-2.642-8.333l-40.283,5.201c8.145,50.162,68.368,103.783,147.316,99.574,70.034-3.734,122.836-49.699,129.868-109.838l-43.12,1.581Z" style="fill: #78b354;"/>
    <path d="M228.334,288.572c22.826,21.467,53.189,34.148,85.369,34.031,27.16-.098,27.697-31.778,48.793-47.755,.41-4.908,38.55-23.149,40.072-27.822,13-25.614,15.858-16.195,15.858-83.56,0-56.709-52.975-86.879-109.683-86.879s-109.683,30.171-109.683,86.879c0,52,4.057,61.268,17.058,86.882,.608,1.868,11.794,36.306,12.217,38.223Z" style="fill: #8868ad;"/>
    <path d="M409.939,236.645c-8.764,49.79-60.522,58.464-95.406,60.628-40.862,2.534-89.7-17.391-100.031-50.348-.852-2.717-4.77-4.777-5.445-7.476l-37.48,4.345c8.145,50.162,68.368,103.783,147.316,99.574,70.034-3.734,122.836-49.699,129.868-109.838l-38.822,3.117Z" style="fill: #78b354;"/>
    <circle cx="278.811" cy="233" r="21.084" style="fill: #2a2f33;"/>
    <circle cx="344.177" cy="234.765" r="15.796" style="fill: #2a2f33;"/>
    <path d="M189.956,63.69c2.564,0,4.976,.378,7.085,1.041,.024-.25,.038-.503,.038-.759,0-4.362-3.536-7.898-7.898-7.898s-7.898,3.536-7.898,7.898c0,.442,.045,.872,.115,1.294,2.426-.991,5.372-1.576,8.558-1.576Z" style="fill: #2a2f33;"/>
  </g>
  <g>
    <path d="M209.945,555.083v-11.234h-.488c-4.559,7.977-12.21,13.35-20.351,13.35-4.884,0-9.28-1.465-12.536-4.559v33.375h-27.026v-121.291h27.026v48.842c0,13.513,6.675,19.211,15.955,19.211,10.583,0,16.118-9.117,16.118-22.793v-45.26h27.026v90.358h-25.724Z" style="fill: #78b354;"/>
    <path d="M321.63,544.5c-4.07,8.629-14.164,13.513-25.235,13.513-26.375,0-45.423-20.351-45.423-47.54,0-27.677,19.374-48.679,45.423-48.679,11.722,0,20.676,4.396,25.073,11.396h.326v-8.466h27.026v80.753c0,12.21-1.628,21.49-4.884,27.677-6.512,12.536-24.258,22.142-46.889,22.142-25.561,0-42.167-14.49-44.446-31.747h31.259c3.093,6.675,9.117,8.954,15.792,8.954,13.676,0,21.979-8.954,21.979-25.398v-2.605Zm.163-34.19c0-13.187-8.954-23.281-22.142-23.281-12.048,0-21.653,10.094-21.653,22.467,0,12.699,8.628,23.282,21.653,23.282,13.188,0,22.142-9.443,22.142-22.468Z" style="fill: #8868ad;"/>
    <path d="M369.658,455.119v-20.514h27.026v20.514h-27.026Zm0,99.964v-90.358h27.026v90.358h-27.026Z" style="fill: #8868ad;"/>
    <path d="M422.406,555.083v-69.844h-13.35v-20.514h13.35v-30.119h27.026v30.119h13.025v20.514h-13.025v69.844h-27.026Z" style="fill: #8868ad;"/>
  </g>
</svg>